# xmcd
#
# Track frame offsets: 
#        150
#        16232
#        34092
#        51135
#        82397
#        96952
#        116180
#        136780
#        154190
#        178125
#        195325
#
# Disc length: 2838 seconds
#
# Revision: 0
# Processed by: cddbd v1.5.2PL0 Copyright (c) Steve Scherf et al.
# Submitted via: ExactAudioCopy v1.0b3
#
DISCID=910b140b
DTITLE=Soul Touch - The Edge of Paradise
DYEAR=2000
DGENRE=New Age
TTITLE0=Another Rainy Day
TTITLE1=Broken Boulevard
TTITLE2=The Edge of Paradise
TTITLE3=Blue kind of Love
TTITLE4=Still want You
TTITLE5=Unspoken Words
TTITLE6=Something's Outthere
TTITLE7=Listen to the Silence
TTITLE8=Far Away from Home
TTITLE9=Sound of a Voice
TTITLE10=Soul Touch
EXTD=
EXTT0=
EXTT1=
EXTT2=
EXTT3=
EXTT4=
EXTT5=
EXTT6=
EXTT7=
EXTT8=
EXTT9=
EXTT10=
PLAYORDER=
